<svg xmlns="http://www.w3.org/2000/svg" viewBox="0 0 64 64">
  <defs>
    <clipPath id="head">
      <path d="M32 4 C16 4 6 18 6 34 C6 50 18 62 32 62 C46 62 58 50 58 34 C58 18 48 4 32 4 Z"/>
    </clipPath>
  </defs>
  <path d="M32 4 C16 4 6 18 6 34 C6 50 18 62 32 62 C46 62 58 50 58 34 C58 18 48 4 32 4 Z" fill="#E62429"/>
  <g clip-path="url(#head)" stroke="#0A0A0A" stroke-width="0.7" fill="none" opacity="0.55">
    <line x1="32" y1="4" x2="32" y2="62"/>
    <line x1="6" y1="34" x2="58" y2="34"/>
    <line x1="14" y1="10" x2="50" y2="58"/>
    <line x1="50" y1="10" x2="14" y2="58"/>
    <line x1="6" y1="20" x2="58" y2="48"/>
    <line x1="6" y1="48" x2="58" y2="20"/>
    <ellipse cx="32" cy="34" rx="8" ry="11"/>
    <ellipse cx="32" cy="34" rx="16" ry="20"/>
    <ellipse cx="32" cy="34" rx="24" ry="29"/>
  </g>
  <path d="M11 28 C11 22 22 20 28 24 C30 28 26 36 18 35 C13 34 11 31 11 28 Z" fill="#FFFFFF" stroke="#0A0A0A" stroke-width="1.6" stroke-linejoin="round"/>
  <path d="M53 28 C53 22 42 20 36 24 C34 28 38 36 46 35 C51 34 53 31 53 28 Z" fill="#FFFFFF" stroke="#0A0A0A" stroke-width="1.6" stroke-linejoin="round"/>
</svg>
